<svg version="1.1" xmlns="http://www.w3.org/2000/svg" xmlns:xlink="http://www.w3.org/1999/xlink" width="63.94832" height="63.94832" viewBox="0,0,63.94832,63.94832"><g transform="translate(-208.02584,-148.02584)"><g data-paper-data="{&quot;isPaintingLayer&quot;:true}" fill-rule="nonzero" stroke="none" stroke-width="0" stroke-linecap="butt" stroke-linejoin="miter" stroke-miterlimit="10" stroke-dasharray="" stroke-dashoffset="0" style="mix-blend-mode: normal"><path d="M208.02584,180c0,-17.65884 14.31532,-31.97416 31.97416,-31.97416c17.65884,0 31.97416,14.31532 31.97416,31.97416c0,17.65884 -14.31532,31.97416 -31.97416,31.97416c-17.65884,0 -31.97416,-14.31532 -31.97416,-31.97416z" fill-opacity="0.5" fill="#000000"/><path d="M220.2843,179.45765c0.0158,-0.60442 0.62594,-1.1252 0.62594,-1.1252l15.90848,-11.35183c0,0 0.8205,-0.44565 1.22504,-0.18123c0.40454,0.26442 0.50453,1.21087 0.50453,1.21087v23.41019c0,0 0.16659,1.08365 -0.50453,1.31178c-0.67112,0.22813 -1.18909,-0.43336 -1.18909,-0.43336l-16.0031,-11.72249c0,0 -0.58307,-0.51431 -0.56727,-1.11873z" fill="#b5bac1"/><path d="M236.93378,185.7697l1.10997,-11.806c0,0 7.29117,-0.46959 14.06488,3.42352c5.81352,3.34125 6.70862,12.04344 6.72725,13.62901c0.00914,0.77779 -0.33507,1.38804 -0.91366,1.51418c-0.57858,0.12613 -1.53841,-0.6769 -1.53841,-0.6769c0,0 -5.72407,-4.90912 -9.80138,-5.98201c-6.00673,-1.5806 -9.64865,-0.1018 -9.64865,-0.1018z" fill="#b5bac1"/></g></g></svg>